:FULLY-SPECIFIED
:FORCE-ALL-JOINTS-BE-3DOF
:DEGREES
1733
root -5.14294 15.6924 27.3529 907.012 -4.20154 189.065
lfemur -39.1262 8.83354 -15.4166
ltibia 58.7615 0 0
lfoot -16.7662 23.6948 0
ltoes -10.6624 0 0
rfemur -26.9425 -22.0248 20.5552
rtibia 58.6927 0 0
rfoot -12.6627 -24.8375 0
rtoes 15.4981 0 0
lowerback 16.9555 2.7395 -5.86282
upperback -0.137989 2.54759 1.93819
thorax -10.0669 1.5177 4.81795
lowerneck 5.56279 -14.9754 -17.0903
upperneck -3.37451 -21.9191 25.0627
head 2.93524 -11.5483 9.41925
lclavicle -7.05811e-14 2.93705e-14 0
lhumerus -53.4788 -34.9568 113.475
lradius 97.8906 0 0
lwrist 46.4252 0 0
lhand -5.41479 36.6224 0
lfingers 7.12502 0 0
lthumb 19.1007 61.5191 0
rclavicle -1.50577e-14 5.51279e-14 0
rhumerus 41.8509 43.7516 -29.051
rradius 129.887 0 0
rwrist -13.9517 0 0
rhand -1.52611 -30.1416 0
rfingers 7.12502 0 0
rthumb 35.3922 -52.5456 0
1734
root -5.07133 15.6953 27.4047 906.857 -1.86935 188.913
lfemur -38.3747 7.35329 -14.2105
ltibia 58.4137 0 0
lfoot -16.4479 22.831 0
ltoes -12.117 0 0
rfemur -26.7221 -22.4369 20.5225
rtibia 58.0982 0 0
rfoot -12.833 -24.7676 0
rtoes 14.846 0 0
lowerback 17.2609 2.96851 -6.27006
upperback -0.0550889 2.71517 1.68398
thorax -10.1785 1.60551 4.72027
lowerneck 5.7937 -14.8495 -17.1428
upperneck -3.50305 -21.7959 25.2421
head 2.86336 -11.5213 9.52942
lclavicle -6.7123e-14 3.27641e-14 0
lhumerus -55.1693 -32.66 112.784
lradius 98.6545 0 0
lwrist 46.1697 0 0
lhand -5.32082 36.043 0
lfingers 7.12502 0 0
lthumb 19.2447 60.9728 0
rclavicle -1.89893e-14 5.88317e-14 0
rhumerus 41.2915 43.0175 -29.4139
rradius 130.322 0 0
rwrist -12.6652 0 0
rhand -2.12552 -30.3277 0
rfingers 7.12502 0 0
rthumb 34.7615 -52.7442 0
1735
root -5.0026 15.6931 27.4508 906.605 0.452724 188.693
lfemur -37.6414 5.90894 -13.0337
ltibia 58.0779 0 0
lfoot -16.1363 21.9851 0
ltoes -13.6329 0 0
rfemur -26.5574 -22.7449 20.4981
rtibia 57.6576 0 0
rfoot -12.9971 -24.7002 0
rtoes 14.1287 0 0
lowerback 17.5868 3.01528 -6.77701
upperback 0.0840382 2.90707 1.43637
thorax -10.2347 1.8312 4.65699
lowerneck 5.19921 -14.9772 -17.142
upperneck -2.80662 -22.0071 24.9708
head 3.16955 -11.561 9.33131
lclavicle -6.3706e-14 3.61175e-14 0
lhumerus -56.7802 -30.4713 112.125
lradius 99.4364 0 0
lwrist 45.7584 0 0
lhand -5.24303 35.5634 0
lfingers 7.12502 0 0
lthumb 19.3719 60.4899 0
rclavicle -2.26163e-14 6.22486e-14 0
rhumerus 40.4017 41.8499 -29.9913
rradius 130.649 0 0
rwrist -11.2068 0 0
rhand -2.70238 -30.5067 0
rfingers 7.12502 0 0
rthumb 33.7606 -53.0593 0
1736
root -4.93618 15.6849 27.4933 906.356 2.88088 188.491
lfemur -36.9337 4.51485 -11.8979
ltibia 57.7578 0 0
lfoot -15.8345 21.1659 0
ltoes -15.1925 0 0
rfemur -26.4543 -22.9377 20.4828
rtibia 57.3838 0 0
rfoot -13.1528 -24.6362 0
rtoes 13.3553 0 0
lowerback 17.8359 3.25463 -7.21675
upperback 0.239642 3.10647 1.18556
thorax -10.2382 1.94052 4.56917
lowerneck 5.0822 -14.9186 -17.2223
upperneck -2.77047 -21.9667 25.1424
head 3.22302 -11.5482 9.38972
lclavicle -6.03709e-14 3.93905e-14 0
lhumerus -58.2796 -28.434 111.512
lradius 100.224 0 0
lwrist 45.2035 0 0
lhand -5.18412 35.2003 0
lfingers 7.12502 0 0
lthumb 19.4805 60.0781 0
rclavicle -2.5871e-14 6.53147e-14 0
rhumerus 39.2163 40.2944 -30.7604
rradius 130.854 0 0
rwrist -9.59548 0 0
rhand -3.25106 -30.677 0
rfingers 7.12502 0 0
rthumb 32.4307 -53.4781 0
1737
root -4.87878 15.677 27.5277 906.081 5.38179 188.288
lfemur -36.2588 3.18538 -10.8147
ltibia 57.4566 0 0
lfoot -15.5459 20.3824 0
ltoes -16.7784 0 0
rfemur -26.4186 -23.0044 20.4775
rtibia 57.2897 0 0
rfoot -13.298 -24.5766 0
rtoes 12.5352 0 0
lowerback 18.0927 3.47601 -7.55515
upperback 0.395348 3.30143 0.920164
thorax -10.2384 2.04256 4.4065
lowerneck 4.78649 -14.839 -17.266
upperneck -2.7243 -21.8635 25.2447
head 3.28246 -11.492 9.41406
lclavicle -5.71589e-14 4.25427e-14 0
lhumerus -59.6357 -26.5915 110.958
lradius 101.006 0 0
lwrist 44.5168 0 0
lhand -5.1468 34.9702 0
lfingers 7.12502 0 0
lthumb 19.5683 59.7449 0
rclavicle -2.86857e-14 6.79664e-14 0
rhumerus 37.77 38.3966 -31.6988
rradius 130.925 0 0
rwrist -7.85043 0 0
rhand -3.76592 -30.8368 0
rfingers 7.12502 0 0
rthumb 30.8128 -53.9875 0
1738
root -4.82456 15.677 27.5518 905.92 8.1417 188.185
lfemur -35.6239 1.93488 -9.79587
ltibia 57.178 0 0
lfoot -15.2737 19.6435 0
ltoes -18.3731 0 0
rfemur -26.4331 -23.0538 20.5072
rtibia 57.2875 0 0
rfoot -13.4306 -24.5221 0
rtoes 11.6778 0 0
lowerback 18.1473 3.7815 -7.82434
upperback 0.41161 3.62441 0.693202
thorax -10.2983 2.2033 4.21388
lowerneck 4.83236 -15.3702 -17.6264
upperneck -2.40623 -21.5909 25.391
head 3.39777 -10.8633 9.54642
lclavicle -5.41109e-14 4.55339e-14 0
lhumerus -60.8166 -24.987 110.475
lradius 101.77 0 0
lwrist 43.7104 0 0
lhand -5.13376 34.8898 0
lfingers 7.12502 0 0
lthumb 19.6335 59.4975 0
rclavicle -3.09927e-14 7.01398e-14 0
rhumerus 36.0976 36.2021 -32.7838
rradius 130.636 0 0
rwrist -5.99075 0 0
rhand -4.24131 -30.9844 0
rfingers 7.12502 0 0
rthumb 28.9481 -54.5746 0
1739
root -4.77087 15.6656 27.5742 905.822 11.0507 188.06
lfemur -35.0365 0.777728 -8.85308
ltibia 56.9253 0 0
lfoot -15.0212 18.9581 0
ltoes -19.959 0 0
rfemur -26.4751 -23.1971 20.5934
rtibia 57.2812 0 0
rfoot -13.5486 -24.4737 0
rtoes 10.7923 0 0
lowerback 18.1753 4.11266 -8.0569
upperback 0.404331 3.98639 0.436181
thorax -10.3702 2.38008 3.95492
lowerneck 4.56405 -15.2804 -17.7385
upperneck -2.26564 -21.4678 25.4714
head 3.48055 -10.7797 9.57948
lclavicle -5.12679e-14 4.8324e-14 0
lhumerus -61.7906 -23.6636 110.077
lradius 102.504 0 0
lwrist 42.7961 0 0
lhand -5.1612 34.8745 0
lfingers 7.12502 0 0
lthumb 19.674 59.3437 0
rclavicle -3.27244e-14 7.17712e-14 0
rhumerus 34.2339 33.7566 -33.993
rradius 129.795 0 0
rwrist -4.03554 0 0
rhand -4.67161 -31.118 0
rfingers 7.12502 0 0
rthumb 26.8778 -55.2265 0
